<?xml version="1.0" encoding="utf-8"?>
<!-- Generator: Adobe Illustrator 27.8.1, SVG Export Plug-In . SVG Version: 6.00 Build 0)  -->
<svg version="1.1" id="Laag_1" xmlns="http://www.w3.org/2000/svg" xmlns:xlink="http://www.w3.org/1999/xlink" x="0px" y="0px"
	 viewBox="0 0 255.1 99.2" style="enable-background:new 0 0 255.1 99.2;" xml:space="preserve">
<style type="text/css">
	.st0{fill:#0010FE;}
	.st1{fill:#7E7E7E;}
</style>
<g>
	<path class="st0" d="M103,62.4h-4.1l-0.4,3.1h3.3l-0.1,1h-3.3L98,69.7h4.1l-0.1,1h-5.3l1.2-9.3h5.3L103,62.4z"/>
	<path class="st0" d="M103.4,70.7l0.8-6.6h0.6c0.3,0,0.4,0.1,0.4,0.4l-0.1,1.3c0.4-0.6,0.7-1,1.2-1.3c0.4-0.3,0.9-0.4,1.4-0.4
		c0.5,0,0.9,0.2,1.1,0.5c0.3,0.3,0.4,0.8,0.4,1.4c0,0.1,0,0.2,0,0.3c0,0.1,0,0.2,0,0.3l-0.5,4.2h-1.2l0.5-4.2c0-0.1,0-0.2,0-0.3
		c0-0.1,0-0.2,0-0.2c0-0.4-0.1-0.6-0.2-0.8c-0.1-0.2-0.3-0.3-0.6-0.3c-0.2,0-0.4,0.1-0.6,0.2c-0.2,0.1-0.4,0.3-0.6,0.5
		c-0.2,0.2-0.4,0.5-0.6,0.7c-0.2,0.3-0.3,0.6-0.4,1l-0.4,3.3H103.4z"/>
	<path class="st0" d="M115.1,70.7h-0.6c-0.2,0-0.3,0-0.3-0.1c-0.1-0.1-0.1-0.2-0.1-0.3l0.1-1.3c-0.2,0.3-0.3,0.5-0.5,0.7
		s-0.4,0.4-0.6,0.6c-0.2,0.2-0.4,0.3-0.6,0.4s-0.5,0.1-0.7,0.1c-0.3,0-0.5-0.1-0.7-0.2c-0.2-0.1-0.4-0.3-0.5-0.4
		c-0.2-0.2-0.3-0.4-0.3-0.7c-0.1-0.3-0.1-0.6-0.1-1c0-0.4,0-0.8,0.1-1.1c0.1-0.4,0.2-0.7,0.4-1c0.2-0.3,0.4-0.6,0.6-0.9
		c0.3-0.3,0.5-0.5,0.8-0.7c0.3-0.2,0.6-0.4,1-0.5c0.4-0.1,0.7-0.2,1.1-0.2c0.3,0,0.6,0,0.8,0.1c0.3,0,0.5,0.1,0.8,0.2L115.1,70.7z
		 M112.2,69.8c0.2,0,0.4-0.1,0.6-0.2c0.2-0.1,0.4-0.3,0.6-0.5s0.4-0.5,0.5-0.8c0.2-0.3,0.3-0.7,0.4-1l0.3-2.2
		c-0.1-0.1-0.2-0.1-0.3-0.1c-0.1,0-0.2,0-0.3,0c-0.3,0-0.5,0-0.8,0.1c-0.2,0.1-0.5,0.2-0.7,0.4s-0.4,0.3-0.6,0.5
		c-0.2,0.2-0.3,0.4-0.4,0.7c-0.1,0.3-0.2,0.5-0.3,0.8s-0.1,0.6-0.1,0.9C111.2,69.3,111.6,69.8,112.2,69.8z"/>
	<path class="st0" d="M116.8,70.7l1.2-9.6h1.1l-0.6,4.7c0.2-0.3,0.3-0.5,0.5-0.7c0.2-0.2,0.4-0.4,0.6-0.6c0.2-0.2,0.4-0.3,0.6-0.4
		s0.5-0.1,0.7-0.1c0.6,0,1,0.2,1.3,0.6c0.3,0.4,0.5,1,0.5,1.8c0,0.4,0,0.7-0.1,1.1c-0.1,0.4-0.2,0.7-0.3,1s-0.3,0.6-0.5,0.9
		c-0.2,0.3-0.4,0.5-0.6,0.7c-0.2,0.2-0.5,0.4-0.8,0.5s-0.6,0.2-0.9,0.2c-0.4,0-0.7-0.1-1-0.2c-0.3-0.1-0.5-0.4-0.7-0.6l-0.1,0.4
		c0,0.1-0.1,0.2-0.1,0.3c-0.1,0.1-0.1,0.1-0.3,0.1H116.8z M120.6,65c-0.2,0-0.4,0.1-0.6,0.2s-0.4,0.3-0.6,0.5
		c-0.2,0.2-0.4,0.5-0.6,0.8c-0.2,0.3-0.3,0.7-0.4,1l-0.2,1.7c0.2,0.2,0.4,0.4,0.6,0.5c0.2,0.1,0.5,0.1,0.7,0.1c0.2,0,0.4,0,0.6-0.1
		c0.2-0.1,0.4-0.2,0.5-0.4c0.2-0.2,0.3-0.4,0.4-0.6s0.2-0.5,0.3-0.7c0.1-0.2,0.2-0.5,0.2-0.8s0.1-0.5,0.1-0.8c0-0.5-0.1-0.9-0.3-1.2
		C121.2,65.1,120.9,65,120.6,65z"/>
	<path class="st0" d="M123.7,70.7l1.2-9.6h1.1l-1.2,9.6H123.7z"/>
	<path class="st0" d="M128.8,64.1l-0.8,6.6h-1.1l0.8-6.6H128.8z M129.2,62.1c0,0.1,0,0.2-0.1,0.3c0,0.1-0.1,0.2-0.2,0.3
		c-0.1,0.1-0.2,0.1-0.3,0.2s-0.2,0.1-0.3,0.1c-0.1,0-0.2,0-0.3-0.1s-0.2-0.1-0.2-0.2s-0.1-0.2-0.2-0.3c0-0.1-0.1-0.2-0.1-0.3
		s0-0.2,0.1-0.3c0-0.1,0.1-0.2,0.2-0.3c0.1-0.1,0.2-0.1,0.3-0.2c0.1,0,0.2-0.1,0.3-0.1c0.1,0,0.2,0,0.3,0.1c0.1,0,0.2,0.1,0.3,0.2
		c0.1,0.1,0.1,0.2,0.2,0.3C129.2,61.8,129.2,62,129.2,62.1z"/>
	<path class="st0" d="M129.9,70.7l0.8-6.6h0.6c0.3,0,0.4,0.1,0.4,0.4l-0.1,1.3c0.4-0.6,0.7-1,1.2-1.3c0.4-0.3,0.9-0.4,1.4-0.4
		c0.5,0,0.9,0.2,1.1,0.5c0.3,0.3,0.4,0.8,0.4,1.4c0,0.1,0,0.2,0,0.3c0,0.1,0,0.2,0,0.3l-0.5,4.2H134l0.5-4.2c0-0.1,0-0.2,0-0.3
		c0-0.1,0-0.2,0-0.2c0-0.4-0.1-0.6-0.2-0.8c-0.1-0.2-0.3-0.3-0.6-0.3c-0.2,0-0.4,0.1-0.6,0.2c-0.2,0.1-0.4,0.3-0.6,0.5
		c-0.2,0.2-0.4,0.5-0.6,0.7c-0.2,0.3-0.3,0.6-0.4,1l-0.4,3.3H129.9z"/>
	<path class="st0" d="M141.6,66c0,0.2,0,0.4-0.1,0.6s-0.1,0.3-0.2,0.5c-0.1,0.1-0.2,0.3-0.2,0.4s-0.2,0.3-0.2,0.4
		c-0.1,0.1-0.1,0.3-0.2,0.4c0,0.1-0.1,0.3-0.1,0.4c0,0.2,0,0.3,0.1,0.5s0.2,0.3,0.3,0.5c0.1,0.2,0.2,0.3,0.3,0.5
		c0.1,0.2,0.1,0.4,0.1,0.7c0,0.3-0.1,0.6-0.2,0.9c-0.1,0.3-0.3,0.5-0.6,0.7c-0.3,0.2-0.6,0.4-1,0.5c-0.4,0.1-0.8,0.2-1.3,0.2
		c-0.4,0-0.7,0-1-0.1c-0.3-0.1-0.6-0.2-0.8-0.3s-0.4-0.3-0.5-0.5c-0.1-0.2-0.2-0.4-0.2-0.7c0-0.3,0.1-0.6,0.3-0.9s0.4-0.5,0.7-0.6
		c0.3-0.2,0.6-0.3,1-0.4c0.4-0.1,0.7-0.1,1.1-0.1c0.2,0,0.3,0,0.5,0c0.2,0,0.3,0,0.5,0.1c0-0.1-0.1-0.2-0.1-0.3c0-0.1,0-0.2,0-0.3
		c0-0.1,0-0.3,0.1-0.4c0-0.1,0.1-0.3,0.2-0.5c-0.2,0.1-0.3,0.2-0.6,0.3s-0.4,0.1-0.7,0.1c-0.3,0-0.5,0-0.7-0.1
		c-0.2-0.1-0.4-0.2-0.6-0.4c-0.2-0.2-0.3-0.4-0.4-0.6c-0.1-0.2-0.1-0.5-0.1-0.8c0-0.3,0.1-0.6,0.2-0.9s0.3-0.6,0.5-0.8
		c0.2-0.2,0.5-0.4,0.8-0.6c0.3-0.1,0.7-0.2,1.1-0.2c0.5,0,0.9,0.1,1.2,0.3h1.8l-0.1,0.4c0,0.1,0,0.1-0.1,0.2c0,0.1-0.1,0.1-0.2,0.1
		l-0.8,0.1c0,0.1,0.1,0.2,0.1,0.4S141.6,65.8,141.6,66z M140.3,70.9c0-0.1,0-0.2,0-0.3c0-0.1,0-0.2-0.1-0.3c-0.2,0-0.5-0.1-0.7-0.1
		c-0.2,0-0.4,0-0.6,0c-0.4,0-0.7,0-0.9,0.1c-0.3,0.1-0.5,0.1-0.6,0.3s-0.3,0.2-0.4,0.4c-0.1,0.1-0.1,0.3-0.1,0.4
		c0,0.3,0.1,0.6,0.4,0.7c0.3,0.2,0.6,0.2,1.1,0.2c0.3,0,0.5,0,0.8-0.1c0.2-0.1,0.4-0.2,0.6-0.3c0.2-0.1,0.3-0.3,0.4-0.4
		S140.3,71.1,140.3,70.9z M139,67.7c0.2,0,0.4-0.1,0.6-0.2c0.2-0.1,0.3-0.2,0.5-0.4c0.1-0.2,0.2-0.4,0.3-0.6
		c0.1-0.2,0.1-0.4,0.1-0.6c0-0.4-0.1-0.7-0.3-0.9s-0.5-0.3-0.8-0.3c-0.2,0-0.4,0-0.6,0.1s-0.3,0.2-0.4,0.4c-0.1,0.2-0.2,0.3-0.3,0.5
		c-0.1,0.2-0.1,0.4-0.1,0.6c0,0.4,0.1,0.7,0.3,0.9C138.4,67.6,138.7,67.7,139,67.7z"/>
	<path class="st0" d="M150.5,65.5c0,0.3-0.1,0.5-0.2,0.8c-0.1,0.2-0.3,0.5-0.6,0.6s-0.7,0.4-1.3,0.5s-1.2,0.3-2.1,0.3
		c0,0,0,0.1,0,0.1c0,0,0,0.1,0,0.1c0,0.6,0.1,1,0.4,1.3c0.3,0.3,0.6,0.5,1.1,0.5c0.2,0,0.4,0,0.6-0.1c0.2,0,0.3-0.1,0.4-0.2
		c0.1-0.1,0.2-0.1,0.3-0.2c0.1-0.1,0.2-0.1,0.3-0.2c0.1-0.1,0.2-0.1,0.2-0.2c0.1,0,0.1-0.1,0.2-0.1c0.1,0,0.1,0,0.2,0.1l0.3,0.4
		c-0.2,0.2-0.4,0.4-0.6,0.6c-0.2,0.2-0.4,0.3-0.6,0.4c-0.2,0.1-0.5,0.2-0.7,0.2s-0.5,0.1-0.8,0.1c-0.4,0-0.7-0.1-1-0.2
		c-0.3-0.1-0.6-0.3-0.8-0.5s-0.4-0.5-0.5-0.8c-0.1-0.3-0.2-0.7-0.2-1.1c0-0.3,0-0.7,0.1-1s0.2-0.7,0.3-1s0.3-0.6,0.5-0.8
		c0.2-0.3,0.4-0.5,0.7-0.7s0.5-0.3,0.8-0.4c0.3-0.1,0.6-0.2,1-0.2c0.3,0,0.6,0,0.9,0.1c0.2,0.1,0.4,0.2,0.6,0.4
		c0.2,0.1,0.3,0.3,0.3,0.5C150.5,65.2,150.5,65.4,150.5,65.5z M148.5,64.9c-0.3,0-0.5,0.1-0.8,0.2c-0.2,0.1-0.4,0.3-0.6,0.5
		c-0.2,0.2-0.3,0.4-0.5,0.7s-0.2,0.6-0.3,0.9c0.7-0.1,1.2-0.2,1.6-0.3c0.4-0.1,0.7-0.2,0.9-0.3c0.2-0.1,0.4-0.3,0.4-0.4
		c0.1-0.1,0.1-0.3,0.1-0.4c0-0.1,0-0.2-0.1-0.2s-0.1-0.2-0.2-0.2s-0.2-0.1-0.3-0.2C148.9,64.9,148.7,64.9,148.5,64.9z"/>
	<path class="st0" d="M153.2,65.1l-0.7,5.4l-0.3,1.3c-0.1,0.3-0.3,0.5-0.6,0.5h-0.5l0.9-7.2l-0.7-0.1c-0.1,0-0.1-0.1-0.2-0.1
		s-0.1-0.1-0.1-0.2l0.1-0.5h0.9l0.1-0.6c0-0.4,0.1-0.7,0.3-1s0.3-0.5,0.5-0.7c0.2-0.2,0.5-0.4,0.7-0.5s0.6-0.2,0.9-0.2
		c0.3,0,0.5,0,0.7,0.1l-0.1,0.6c0,0.1,0,0.1-0.1,0.1c0,0-0.1,0-0.2,0c0,0-0.1,0-0.1,0s-0.1,0-0.1,0c-0.2,0-0.4,0-0.5,0.1
		c-0.2,0.1-0.3,0.1-0.4,0.3c-0.1,0.1-0.2,0.3-0.3,0.5s-0.1,0.4-0.2,0.7l-0.1,0.6h1.6l-0.1,0.8H153.2z"/>
	<path class="st0" d="M157.2,65.1l-0.7,5.4l-0.3,1.3c-0.1,0.3-0.3,0.5-0.6,0.5h-0.5l0.9-7.2l-0.6-0.1c-0.1,0-0.1-0.1-0.2-0.1
		c0,0-0.1-0.1-0.1-0.2l0.1-0.5h0.9l0.1-0.6c0-0.4,0.1-0.7,0.3-1s0.3-0.5,0.5-0.7c0.2-0.2,0.5-0.4,0.7-0.5s0.6-0.2,0.9-0.2
		c0.3,0,0.5,0,0.7,0.1l-0.1,0.6c0,0.1,0,0.1-0.1,0.1c0,0-0.1,0-0.2,0c0,0-0.1,0-0.1,0s-0.1,0-0.1,0c-0.2,0-0.4,0-0.5,0.1
		c-0.2,0.1-0.3,0.1-0.4,0.3c-0.1,0.1-0.2,0.3-0.3,0.5c-0.1,0.2-0.1,0.4-0.2,0.7l-0.1,0.6h1.6l-0.1,0.8H157.2z"/>
	<path class="st0" d="M164.4,65.5c0,0.3-0.1,0.5-0.2,0.8c-0.1,0.2-0.3,0.5-0.6,0.6c-0.3,0.2-0.7,0.4-1.3,0.5
		c-0.5,0.1-1.2,0.3-2.1,0.3c0,0,0,0.1,0,0.1c0,0,0,0.1,0,0.1c0,0.6,0.1,1,0.4,1.3c0.3,0.3,0.6,0.5,1.1,0.5c0.2,0,0.4,0,0.6-0.1
		c0.2,0,0.3-0.1,0.4-0.2c0.1-0.1,0.2-0.1,0.3-0.2c0.1-0.1,0.2-0.1,0.3-0.2c0.1-0.1,0.2-0.1,0.2-0.2c0.1,0,0.1-0.1,0.2-0.1
		c0.1,0,0.1,0,0.2,0.1l0.3,0.4c-0.2,0.2-0.4,0.4-0.6,0.6c-0.2,0.2-0.4,0.3-0.6,0.4c-0.2,0.1-0.5,0.2-0.7,0.2c-0.2,0-0.5,0.1-0.8,0.1
		c-0.4,0-0.7-0.1-1-0.2c-0.3-0.1-0.6-0.3-0.8-0.5c-0.2-0.2-0.4-0.5-0.5-0.8c-0.1-0.3-0.2-0.7-0.2-1.1c0-0.3,0-0.7,0.1-1
		c0.1-0.3,0.2-0.7,0.3-1s0.3-0.6,0.5-0.8c0.2-0.3,0.4-0.5,0.7-0.7c0.3-0.2,0.5-0.3,0.8-0.4c0.3-0.1,0.6-0.2,1-0.2
		c0.3,0,0.6,0,0.9,0.1c0.2,0.1,0.4,0.2,0.6,0.4c0.2,0.1,0.3,0.3,0.3,0.5C164.3,65.2,164.4,65.4,164.4,65.5z M162.4,64.9
		c-0.3,0-0.5,0.1-0.8,0.2s-0.4,0.3-0.6,0.5c-0.2,0.2-0.3,0.4-0.5,0.7c-0.1,0.3-0.2,0.6-0.3,0.9c0.7-0.1,1.2-0.2,1.6-0.3
		c0.4-0.1,0.7-0.2,0.9-0.3s0.4-0.3,0.4-0.4s0.1-0.3,0.1-0.4c0-0.1,0-0.2-0.1-0.2c0-0.1-0.1-0.2-0.2-0.2c-0.1-0.1-0.2-0.1-0.3-0.2
		S162.6,64.9,162.4,64.9z"/>
	<path class="st0" d="M169.3,70.2c-0.2,0.2-0.4,0.3-0.6,0.4c-0.2,0.1-0.4,0.2-0.6,0.2c-0.2,0-0.5,0.1-0.7,0.1c-0.4,0-0.7-0.1-1-0.2
		s-0.5-0.3-0.7-0.5c-0.2-0.2-0.3-0.5-0.4-0.9c-0.1-0.3-0.2-0.7-0.2-1.1c0-0.5,0.1-1,0.2-1.5c0.2-0.5,0.4-0.9,0.7-1.3
		s0.7-0.7,1.1-0.9c0.4-0.2,0.9-0.3,1.4-0.3c0.4,0,0.8,0.1,1.1,0.2c0.3,0.2,0.6,0.4,0.8,0.7l-0.4,0.4c0,0-0.1,0.1-0.1,0.1
		s-0.1,0-0.1,0c-0.1,0-0.1,0-0.2-0.1s-0.1-0.1-0.2-0.2c-0.1-0.1-0.2-0.1-0.4-0.2s-0.3-0.1-0.5-0.1c-0.3,0-0.6,0.1-0.8,0.2
		c-0.3,0.2-0.5,0.4-0.7,0.7s-0.4,0.6-0.5,1c-0.1,0.4-0.2,0.8-0.2,1.2c0,0.3,0,0.5,0.1,0.7s0.2,0.4,0.3,0.6s0.3,0.3,0.4,0.4
		s0.4,0.1,0.6,0.1c0.2,0,0.4,0,0.5-0.1c0.2,0,0.3-0.1,0.4-0.2c0.1-0.1,0.2-0.1,0.3-0.2c0.1-0.1,0.2-0.1,0.2-0.2
		c0.1-0.1,0.1-0.1,0.2-0.2c0.1,0,0.1-0.1,0.2-0.1c0.1,0,0.2,0,0.2,0.1l0.3,0.4C169.7,69.8,169.5,70,169.3,70.2z"/>
	<path class="st0" d="M171.3,69.5c0,0,0-0.1,0-0.1c0,0,0-0.1,0-0.2s0-0.2,0-0.3c0-0.1,0-0.3,0.1-0.5l0.4-3.3h-0.7
		c-0.1,0-0.1,0-0.1,0c0,0-0.1-0.1-0.1-0.2c0,0,0,0,0-0.1s0-0.1,0-0.1c0,0,0-0.1,0-0.2c0-0.1,0-0.1,0-0.1l1-0.1l0.5-2
		c0-0.1,0-0.1,0.1-0.2c0,0,0.1-0.1,0.2-0.1h0.6l-0.3,2.3h1.7l-0.1,0.8h-1.7l-0.4,3.2c0,0.2,0,0.3,0,0.4c0,0.1,0,0.2,0,0.3
		s0,0.1,0,0.1c0,0,0,0,0,0.1c0,0.2,0.1,0.4,0.2,0.5c0.1,0.1,0.2,0.2,0.4,0.2c0.1,0,0.2,0,0.3,0c0.1,0,0.2-0.1,0.2-0.1
		c0.1,0,0.1-0.1,0.2-0.1c0,0,0.1,0,0.1,0s0.1,0,0.1,0c0,0,0,0,0.1,0.1l0.2,0.6c-0.2,0.2-0.4,0.3-0.7,0.4c-0.3,0.1-0.5,0.2-0.8,0.2
		c-0.4,0-0.8-0.1-1-0.3C171.4,70.2,171.3,69.9,171.3,69.5z"/>
	<path class="st0" d="M177.3,64.1l-0.8,6.6h-1.1l0.8-6.6H177.3z M177.7,62.1c0,0.1,0,0.2-0.1,0.3c0,0.1-0.1,0.2-0.2,0.3
		c-0.1,0.1-0.2,0.1-0.3,0.2s-0.2,0.1-0.3,0.1c-0.1,0-0.2,0-0.3-0.1s-0.2-0.1-0.2-0.2s-0.1-0.2-0.2-0.3c0-0.1-0.1-0.2-0.1-0.3
		s0-0.2,0.1-0.3c0-0.1,0.1-0.2,0.2-0.3c0.1-0.1,0.2-0.1,0.3-0.2c0.1,0,0.2-0.1,0.3-0.1c0.1,0,0.2,0,0.3,0.1c0.1,0,0.2,0.1,0.3,0.2
		c0.1,0.1,0.1,0.2,0.2,0.3C177.7,61.8,177.7,62,177.7,62.1z"/>
	<path class="st0" d="M178.4,64.1h0.9c0.1,0,0.2,0,0.2,0.1c0.1,0,0.1,0.1,0.1,0.2l1,4.2c0,0.2,0.1,0.3,0.1,0.5c0,0.2,0,0.3,0,0.5
		c0-0.2,0.1-0.3,0.2-0.5c0.1-0.2,0.1-0.3,0.2-0.5l2-4.2c0-0.1,0.1-0.1,0.1-0.2c0.1,0,0.1-0.1,0.2-0.1h0.9l-3.3,6.6h-1L178.4,64.1z"
		/>
	<path class="st0" d="M189.6,65.5c0,0.3-0.1,0.5-0.2,0.8c-0.1,0.2-0.3,0.5-0.6,0.6s-0.7,0.4-1.3,0.5s-1.2,0.3-2.1,0.3
		c0,0,0,0.1,0,0.1c0,0,0,0.1,0,0.1c0,0.6,0.1,1,0.4,1.3c0.3,0.3,0.6,0.5,1.1,0.5c0.2,0,0.4,0,0.6-0.1c0.2,0,0.3-0.1,0.4-0.2
		c0.1-0.1,0.2-0.1,0.3-0.2c0.1-0.1,0.2-0.1,0.3-0.2c0.1-0.1,0.2-0.1,0.2-0.2c0.1,0,0.1-0.1,0.2-0.1c0.1,0,0.1,0,0.2,0.1l0.3,0.4
		c-0.2,0.2-0.4,0.4-0.6,0.6c-0.2,0.2-0.4,0.3-0.6,0.4c-0.2,0.1-0.5,0.2-0.7,0.2s-0.5,0.1-0.8,0.1c-0.4,0-0.7-0.1-1-0.2
		c-0.3-0.1-0.6-0.3-0.8-0.5s-0.4-0.5-0.5-0.8c-0.1-0.3-0.2-0.7-0.2-1.1c0-0.3,0-0.7,0.1-1s0.2-0.7,0.3-1s0.3-0.6,0.5-0.8
		c0.2-0.3,0.4-0.5,0.7-0.7s0.5-0.3,0.8-0.4c0.3-0.1,0.6-0.2,1-0.2c0.3,0,0.6,0,0.9,0.1c0.2,0.1,0.4,0.2,0.6,0.4
		c0.2,0.1,0.3,0.3,0.3,0.5C189.6,65.2,189.6,65.4,189.6,65.5z M187.7,64.9c-0.3,0-0.5,0.1-0.8,0.2c-0.2,0.1-0.4,0.3-0.6,0.5
		c-0.2,0.2-0.3,0.4-0.5,0.7s-0.2,0.6-0.3,0.9c0.7-0.1,1.2-0.2,1.6-0.3c0.4-0.1,0.7-0.2,0.9-0.3c0.2-0.1,0.4-0.3,0.4-0.4
		c0.1-0.1,0.1-0.3,0.1-0.4c0-0.1,0-0.2-0.1-0.2s-0.1-0.2-0.2-0.2s-0.2-0.1-0.3-0.2C188,64.9,187.8,64.9,187.7,64.9z"/>
	<path class="st0" d="M190.4,70.7l0.8-6.6h0.6c0.3,0,0.4,0.1,0.4,0.4l-0.1,1.3c0.4-0.6,0.7-1,1.2-1.3c0.4-0.3,0.9-0.4,1.4-0.4
		c0.5,0,0.9,0.2,1.1,0.5c0.3,0.3,0.4,0.8,0.4,1.4c0,0.1,0,0.2,0,0.3s0,0.2,0,0.3l-0.5,4.2h-1.2l0.5-4.2c0-0.1,0-0.2,0-0.3
		c0-0.1,0-0.2,0-0.2c0-0.4-0.1-0.6-0.2-0.8c-0.1-0.2-0.3-0.3-0.6-0.3c-0.2,0-0.4,0.1-0.6,0.2c-0.2,0.1-0.4,0.3-0.6,0.5
		c-0.2,0.2-0.4,0.5-0.6,0.7c-0.2,0.3-0.3,0.6-0.4,1l-0.4,3.3H190.4z"/>
	<path class="st0" d="M202.5,65.5c0,0.3-0.1,0.5-0.2,0.8c-0.1,0.2-0.3,0.5-0.6,0.6c-0.3,0.2-0.7,0.4-1.3,0.5
		c-0.5,0.1-1.2,0.3-2.1,0.3c0,0,0,0.1,0,0.1c0,0,0,0.1,0,0.1c0,0.6,0.1,1,0.4,1.3c0.3,0.3,0.6,0.5,1.1,0.5c0.2,0,0.4,0,0.6-0.1
		c0.2,0,0.3-0.1,0.4-0.2c0.1-0.1,0.2-0.1,0.3-0.2c0.1-0.1,0.2-0.1,0.3-0.2c0.1-0.1,0.2-0.1,0.2-0.2c0.1,0,0.1-0.1,0.2-0.1
		c0.1,0,0.1,0,0.2,0.1l0.3,0.4c-0.2,0.2-0.4,0.4-0.6,0.6c-0.2,0.2-0.4,0.3-0.6,0.4c-0.2,0.1-0.5,0.2-0.7,0.2c-0.2,0-0.5,0.1-0.8,0.1
		c-0.4,0-0.7-0.1-1-0.2c-0.3-0.1-0.6-0.3-0.8-0.5c-0.2-0.2-0.4-0.5-0.5-0.8c-0.1-0.3-0.2-0.7-0.2-1.1c0-0.3,0-0.7,0.1-1
		c0.1-0.3,0.2-0.7,0.3-1s0.3-0.6,0.5-0.8c0.2-0.3,0.4-0.5,0.7-0.7c0.3-0.2,0.5-0.3,0.8-0.4c0.3-0.1,0.6-0.2,1-0.2
		c0.3,0,0.6,0,0.9,0.1c0.2,0.1,0.4,0.2,0.6,0.4c0.2,0.1,0.3,0.3,0.3,0.5C202.4,65.2,202.5,65.4,202.5,65.5z M200.5,64.9
		c-0.3,0-0.5,0.1-0.8,0.2s-0.4,0.3-0.6,0.5c-0.2,0.2-0.3,0.4-0.5,0.7c-0.1,0.3-0.2,0.6-0.3,0.9c0.7-0.1,1.2-0.2,1.6-0.3
		c0.4-0.1,0.7-0.2,0.9-0.3s0.4-0.3,0.4-0.4s0.1-0.3,0.1-0.4c0-0.1,0-0.2-0.1-0.2c0-0.1-0.1-0.2-0.2-0.2c-0.1-0.1-0.2-0.1-0.3-0.2
		S200.7,64.9,200.5,64.9z"/>
	<path class="st0" d="M207.4,65.2c0,0.1-0.1,0.1-0.1,0.1c0,0-0.1,0-0.1,0c-0.1,0-0.1,0-0.2-0.1c-0.1,0-0.2-0.1-0.3-0.2
		s-0.2-0.1-0.4-0.2c-0.1,0-0.3-0.1-0.5-0.1c-0.2,0-0.4,0-0.5,0.1s-0.3,0.1-0.4,0.2s-0.2,0.2-0.3,0.3c-0.1,0.1-0.1,0.3-0.1,0.4
		c0,0.2,0.1,0.4,0.2,0.5c0.1,0.1,0.3,0.2,0.5,0.3c0.2,0.1,0.4,0.2,0.7,0.3c0.2,0.1,0.5,0.2,0.7,0.3c0.2,0.1,0.4,0.3,0.5,0.5
		c0.1,0.2,0.2,0.4,0.2,0.8c0,0.3-0.1,0.6-0.2,0.9s-0.3,0.5-0.5,0.7c-0.2,0.2-0.5,0.4-0.8,0.5c-0.3,0.1-0.7,0.2-1.1,0.2
		c-0.4,0-0.8-0.1-1.1-0.2c-0.3-0.1-0.6-0.3-0.8-0.6l0.3-0.4c0-0.1,0.1-0.1,0.1-0.1s0.1,0,0.2,0c0.1,0,0.1,0,0.2,0.1
		c0.1,0.1,0.2,0.1,0.3,0.2c0.1,0.1,0.2,0.1,0.4,0.2s0.4,0.1,0.6,0.1c0.2,0,0.4,0,0.6-0.1c0.2-0.1,0.3-0.2,0.4-0.3s0.2-0.2,0.3-0.4
		c0.1-0.1,0.1-0.3,0.1-0.5c0-0.2-0.1-0.4-0.2-0.5c-0.1-0.1-0.3-0.2-0.5-0.3c-0.2-0.1-0.4-0.2-0.7-0.2c-0.2-0.1-0.5-0.2-0.7-0.3
		s-0.4-0.3-0.5-0.5c-0.1-0.2-0.2-0.4-0.2-0.8c0-0.3,0.1-0.5,0.2-0.8c0.1-0.3,0.3-0.5,0.5-0.7c0.2-0.2,0.5-0.4,0.8-0.5
		c0.3-0.1,0.6-0.2,1-0.2c0.4,0,0.7,0.1,1,0.2c0.3,0.1,0.6,0.3,0.8,0.5L207.4,65.2z"/>
	<path class="st0" d="M212.5,65.2c0,0.1-0.1,0.1-0.1,0.1c0,0-0.1,0-0.1,0c-0.1,0-0.1,0-0.2-0.1c-0.1,0-0.2-0.1-0.3-0.2
		s-0.2-0.1-0.4-0.2c-0.1,0-0.3-0.1-0.5-0.1c-0.2,0-0.4,0-0.5,0.1s-0.3,0.1-0.4,0.2s-0.2,0.2-0.3,0.3c-0.1,0.1-0.1,0.3-0.1,0.4
		c0,0.2,0.1,0.4,0.2,0.5c0.1,0.1,0.3,0.2,0.5,0.3c0.2,0.1,0.4,0.2,0.7,0.3c0.2,0.1,0.5,0.2,0.7,0.3c0.2,0.1,0.4,0.3,0.5,0.5
		c0.1,0.2,0.2,0.4,0.2,0.8c0,0.3-0.1,0.6-0.2,0.9s-0.3,0.5-0.5,0.7c-0.2,0.2-0.5,0.4-0.8,0.5c-0.3,0.1-0.7,0.2-1.1,0.2
		c-0.4,0-0.8-0.1-1.1-0.2c-0.3-0.1-0.6-0.3-0.8-0.6l0.3-0.4c0-0.1,0.1-0.1,0.1-0.1s0.1,0,0.2,0c0.1,0,0.1,0,0.2,0.1
		c0.1,0.1,0.2,0.1,0.3,0.2c0.1,0.1,0.2,0.1,0.4,0.2s0.4,0.1,0.6,0.1c0.2,0,0.4,0,0.6-0.1c0.2-0.1,0.3-0.2,0.4-0.3s0.2-0.2,0.3-0.4
		c0.1-0.1,0.1-0.3,0.1-0.5c0-0.2-0.1-0.4-0.2-0.5c-0.1-0.1-0.3-0.2-0.5-0.3c-0.2-0.1-0.4-0.2-0.7-0.2c-0.2-0.1-0.5-0.2-0.7-0.3
		s-0.4-0.3-0.5-0.5c-0.1-0.2-0.2-0.4-0.2-0.8c0-0.3,0.1-0.5,0.2-0.8c0.1-0.3,0.3-0.5,0.5-0.7c0.2-0.2,0.5-0.4,0.8-0.5
		c0.3-0.1,0.6-0.2,1-0.2c0.4,0,0.7,0.1,1,0.2c0.3,0.1,0.6,0.3,0.8,0.5L212.5,65.2z"/>
</g>
<path class="st0" d="M14.2,54.3c0.3,9.3,4.1,17.7,10,24l24-24H14.2z"/>
<path class="st0" d="M48.2,50.6l-10-10c-2.5,2.6-4,6.1-4.2,10H48.2z"/>
<path class="st0" d="M50.6,22.7c-7,0.2-13.3,3.1-18,7.5l18,18V22.7z"/>
<path class="st0" d="M56.9,54.3l16,16c4-4.2,6.4-9.8,6.7-16H56.9z"/>
<path class="st0" d="M79.5,50.6c-0.2-6.2-2.7-11.8-6.7-16l-16,16H79.5z"/>
<path class="st0" d="M54.3,48.2l24-24c-6.3-5.9-14.8-9.7-24-10V48.2z"/>
<path class="st0" d="M50.6,56.7l-16,16c4.2,3.9,9.8,6.4,16,6.7V56.7z"/>
<path class="st0" d="M54.3,70.9c3.9-0.1,7.4-1.7,10-4.2l-10-10V70.9z"/>
<g>
	<path class="st1" d="M109.8,32.6l-0.4,3.2h-5.9l-2.3,18.5h-3.9l2.3-18.5h-6l0.4-3.2H109.8z"/>
	<path class="st1" d="M107.7,38.9h2.8c0.3,0,0.5,0.1,0.6,0.2s0.3,0.3,0.3,0.5l0.9,8.2c0.1,0.5,0.1,0.9,0.1,1.3c0,0.4,0,0.8,0,1.3
		c0.1-0.4,0.3-0.8,0.5-1.3c0.2-0.4,0.3-0.9,0.5-1.3l3.3-8.2c0.1-0.2,0.2-0.4,0.4-0.5c0.2-0.1,0.4-0.2,0.6-0.2h1.6
		c0.3,0,0.5,0.1,0.6,0.2c0.2,0.1,0.2,0.3,0.3,0.5l1.3,8.2c0.1,0.5,0.1,0.9,0.2,1.3c0,0.4,0.1,0.8,0.1,1.3c0.1-0.4,0.2-0.8,0.4-1.3
		c0.1-0.4,0.3-0.9,0.4-1.3l3-8.2c0.1-0.2,0.2-0.4,0.4-0.5c0.2-0.1,0.4-0.2,0.6-0.2h2.7L123,54.3h-2.9c-0.3,0-0.5-0.2-0.6-0.7
		l-1.5-8.9c-0.1-0.4-0.1-0.8-0.1-1.2c-0.1,0.2-0.1,0.4-0.2,0.6c-0.1,0.2-0.1,0.4-0.2,0.6l-3.7,8.9c-0.2,0.4-0.4,0.7-0.8,0.7h-2.7
		L107.7,38.9z"/>
	<path class="st1" d="M135.1,38.9l-1.8,15.4h-3.7l1.8-15.4H135.1z M136.1,34.4c0,0.3-0.1,0.6-0.2,0.9c-0.1,0.3-0.3,0.5-0.5,0.7
		c-0.2,0.2-0.5,0.4-0.7,0.5c-0.3,0.1-0.6,0.2-0.9,0.2c-0.3,0-0.6-0.1-0.8-0.2c-0.3-0.1-0.5-0.3-0.7-0.5c-0.2-0.2-0.4-0.5-0.5-0.7
		c-0.1-0.3-0.2-0.6-0.2-0.9c0-0.3,0.1-0.6,0.2-0.9c0.1-0.3,0.3-0.5,0.5-0.8s0.5-0.4,0.7-0.5c0.3-0.1,0.6-0.2,0.8-0.2
		c0.3,0,0.6,0.1,0.9,0.2c0.3,0.1,0.5,0.3,0.7,0.5c0.2,0.2,0.4,0.5,0.5,0.8C136,33.7,136.1,34.1,136.1,34.4z"/>
	<path class="st1" d="M157.9,42c0,1.1-0.1,2.2-0.4,3.3c-0.2,1-0.6,2-1.1,2.9c-0.5,0.9-1,1.7-1.7,2.5c-0.6,0.7-1.4,1.4-2.2,1.9
		l4.3,5.9h-3.2c-0.5,0-0.9-0.1-1.2-0.2s-0.7-0.4-0.9-0.7l-2.5-3.5c-0.5,0.1-0.9,0.2-1.4,0.3c-0.5,0.1-1,0.1-1.5,0.1
		c-1.4,0-2.6-0.2-3.7-0.7c-1.1-0.5-2-1.2-2.8-2c-0.8-0.9-1.4-1.9-1.8-3c-0.4-1.2-0.6-2.4-0.6-3.8c0-1.2,0.1-2.3,0.4-3.4
		c0.3-1.1,0.6-2.1,1.1-3c0.5-0.9,1.1-1.8,1.8-2.5c0.7-0.8,1.5-1.4,2.3-1.9c0.9-0.5,1.8-0.9,2.8-1.2c1-0.3,2.1-0.4,3.2-0.4
		c1.4,0,2.6,0.2,3.7,0.7c1.1,0.5,2,1.2,2.8,2c0.8,0.9,1.4,1.9,1.8,3.1C157.7,39.3,157.9,40.6,157.9,42z M153.9,42.1
		c0-1-0.1-1.9-0.4-2.7s-0.6-1.5-1.1-2.1s-1-1-1.7-1.3s-1.4-0.5-2.3-0.5c-1.1,0-2.1,0.2-2.9,0.7c-0.9,0.4-1.6,1.1-2.3,1.9
		c-0.6,0.8-1.1,1.8-1.5,2.9c-0.3,1.1-0.5,2.4-0.5,3.8c0,1,0.1,1.9,0.4,2.7c0.2,0.8,0.6,1.5,1,2c0.5,0.6,1,1,1.7,1.3
		c0.7,0.3,1.4,0.5,2.3,0.5c1.1,0,2.1-0.2,3-0.7s1.6-1.1,2.3-1.9c0.6-0.8,1.1-1.8,1.5-2.9C153.8,44.7,153.9,43.5,153.9,42.1z"/>
	<path class="st1" d="M172,42.4c0,0.7-0.1,1.3-0.4,1.9c-0.3,0.6-0.8,1.1-1.5,1.5c-0.7,0.4-1.7,0.8-2.9,1.2c-1.2,0.3-2.8,0.6-4.6,0.8
		V48c0,2.4,1,3.6,3.1,3.6c0.4,0,0.8,0,1.2-0.1c0.3-0.1,0.6-0.2,0.9-0.3c0.3-0.1,0.5-0.3,0.7-0.4c0.2-0.1,0.4-0.3,0.6-0.4
		c0.2-0.1,0.3-0.2,0.5-0.3c0.2-0.1,0.4-0.1,0.6-0.1c0.1,0,0.2,0,0.4,0.1c0.1,0.1,0.2,0.1,0.3,0.2l0.9,1.1c-0.5,0.5-1,1-1.6,1.4
		c-0.5,0.4-1,0.7-1.6,1c-0.5,0.2-1.1,0.4-1.7,0.6c-0.6,0.1-1.2,0.2-1.9,0.2c-0.9,0-1.7-0.2-2.4-0.5c-0.7-0.3-1.4-0.7-1.9-1.3
		s-0.9-1.2-1.2-2c-0.3-0.8-0.4-1.7-0.4-2.6c0-0.8,0.1-1.6,0.3-2.4c0.2-0.8,0.4-1.5,0.8-2.2c0.3-0.7,0.7-1.3,1.2-1.9
		c0.5-0.6,1-1.1,1.6-1.5c0.6-0.4,1.3-0.8,2-1c0.7-0.2,1.5-0.4,2.3-0.4c0.8,0,1.5,0.1,2.1,0.3s1.1,0.5,1.5,0.9
		c0.4,0.4,0.7,0.8,0.9,1.2C171.9,41.6,172,42,172,42.4z M166.9,41.2c-0.5,0-1,0.1-1.4,0.3c-0.4,0.2-0.8,0.5-1.2,0.9
		c-0.3,0.4-0.6,0.8-0.9,1.3s-0.5,1.1-0.6,1.7c1.2-0.2,2.2-0.4,3-0.6c0.8-0.2,1.3-0.4,1.8-0.7c0.4-0.2,0.7-0.5,0.8-0.8
		c0.1-0.3,0.2-0.6,0.2-0.9c0-0.1,0-0.3-0.1-0.5s-0.2-0.3-0.3-0.4c-0.1-0.1-0.3-0.2-0.5-0.3S167.2,41.2,166.9,41.2z"/>
	<path class="st1" d="M173.4,54.3l2.7-22.3h3.6L177,54.3H173.4z"/>
</g>
</svg>
